# xmcd
#
# Track frame offsets:
#	150
#	11777
#	21667
#	24897
#	34702
#	48652
#	56400
#	68312
#	73075
#	79310
#	88927
#	101910
#	107627
#	118077
#	133135
#	142657
#	152365
#	165600
#	184155
#
# Disc length: 2630 seconds
#
# Revision: 0
# Processed by: cddbd v1.5PL3 Copyright (c) Steve Scherf et al.
# Submitted via: dBpowerAMP V4.0
#
DISCID=000a4413
DTITLE=Various Artist - Country Kids
DYEAR=1992
DGENRE=Country
TTITLE0=Gillian Eastoe/Heart Of The Country
TTITLE1=Don Spencer/Little Red Hen
TTITLE2=Ernie Dingo and Maroochy Barambah/Jiribuga The Porcupine
TTITLE3=Mary Schneider/Ghost Riders In The Sky
TTITLE4=Greg Champion/Every Tadpole Becomes A Frog
TTITLE5=Tania Bowra and Robyne Dunn/Bushrangers
TTITLE6=Anne Kirkpatrick/My Dad Snores
TTITLE7=Mic Conway/The Kangaroo
TTITLE8=Jim Conway/Oodnadatta Parramatta
TTITLE9=Tracey Harvey/Home Among The Gumtrees
TTITLE10=Don Spencer/Out The Back
TTITLE11=Anne Kirkpatrick/Family Treasures
TTITLE12=Lucky Starr/I've Been Everywhere
TTITLE13=Darryl Aberhart/Sun Arise
TTITLE14=Terry Hannigan/You Can't Rollerskate In A Buffalo Herd
TTITLE15=Graeme Connors/There's A Monkey Sitting In The Family Tree
TTITLE16=Anne Kirkpatrick/Running Bear
TTITLE17=Don Spencer/I Ain't Gonna Hop, Pop
TTITLE18=Gillian Eastoe/Dead Skunk
EXTD=
EXTT0=
EXTT1=
EXTT2=
EXTT3=
EXTT4=
EXTT5=
EXTT6=
EXTT7=
EXTT8=
EXTT9=
EXTT10=
EXTT11=
EXTT12=
EXTT13=
EXTT14=
EXTT15=
EXTT16=
EXTT17=
EXTT18=
PLAYORDER=
